<svg xmlns="http://www.w3.org/2000/svg" width="90.003" height="90" viewBox="0 0 90.003 90"><path data-name="Path 5816" d="M90 42.46a41.51 41.51 0 00-8.876-25.22 44.479 44.479 0 00-4.948-5.332c-.135-.125-.238-.181-.362-.311-.163-.172-1.222-1.061-1.454-1.238a44.816 44.816 0 00-3.98-2.885A46.831 46.831 0 0063.2 3.7 43.878 43.878 0 0045.036.013l-1.475.008a45.208 45.208 0 00-17.506 3.894 68.907 68.907 0 00-3.557 1.775 47.212 47.212 0 00-8.198 5.834c-.847.818-1.5 1.352-2.36 2.3l-.979 1.038a45.872 45.872 0 00-6.669 10.045C2.056 29.6 0 35.923 0 41.98a51.262 51.262 0 001.749 14.479 38.954 38.954 0 004.542 10.347 40.2 40.2 0 003.981 5.245c.147.17.292.3.437.475.158.186.312.3.475.484.3.33.594.639.916.957l1.892 1.806c.374.374 2.649 2.337 3.007 2.615l4.224 3.21c-.06.1-.924.948-1.076 1.1-.369.371-.742.692-1.1 1.064L16.9 85.938c-.485.51-1.814 1.619-1.132 2.859.453.823 1.834 1.2 3.1 1.2h52.219c1.242 0 3.308-.035 4.113-.718.634-.537.364-1.835-.369-2.524a8.656 8.656 0 01-.58-.67l-2.856-3.2c-.233-.248-.369-.4-.6-.648-.1-.112-.161-.206-.264-.315l-.773-.882a42.9 42.9 0 0014.06-14.35l.1-.156.006-.027A44.1 44.1 0 0090 43.981v-.075z" fill="#097bff" fill-rule="evenodd"/><path data-name="Path 5817" d="M23.383 80.934c2.2-2.179 4.337-4.4 6.53-6.578l2.152-2.206-2.236-1.115a33.362 33.362 0 01-5.046-3.411c-.341-.268-.61-.533-.937-.792a39.069 39.069 0 01-3.346-3.426 19.68 19.68 0 01-.741-.938 28.191 28.191 0 01-5.639-13.093 31.731 31.731 0 014.469-21.942 31.314 31.314 0 012.1-2.942 20.667 20.667 0 011.6-1.814l.845-.885c.149-.149.266-.25.423-.394s.261-.279.437-.425c.631-.517 1.115-1.01 1.852-1.56.324-.24.617-.477.96-.72a31.721 31.721 0 0117.859-5.95c15.541-.369 27.863 10.919 31.284 23.028a31.687 31.687 0 01-2.565 22.537 29.943 29.943 0 01-2.643 4.133c-.814 1.079-1.139 1.383-1.924 2.3l-1.707 1.7c-.154.132-.291.287-.448.415a33.781 33.781 0 01-4.913 3.594l-2.243 1.17c.039.236.881 1.036 1.078 1.282l1.374 1.554c.111.121.185.173.283.294.185.224.377.413.565.639l.858.916a51.438 51.438 0 003.813 3.923c.353.277.479.034.773-.155 1.287-.822 3.5-2.533 4.722-3.542 1.118-.924 2.1-1.8 3.133-2.823l1.175-1.178c.528-.466 2.259-2.568 2.757-3.2 5.974-7.55 8.615-17.559 8.3-27.35-.671-21.213-16.738-36.643-36.282-39.73a44.1 44.1 0 00-30.731 6.063 45.561 45.561 0 00-5.433 4.029l-.605.549c-.416.432-1.385 1.259-1.84 1.761-.182.2-.367.423-.557.6-.259.242-.362.409-.58.621a47.352 47.352 0 00-3.164 4 44.765 44.765 0 00-4.9 9.36 38.471 38.471 0 00-2.526 16.349 43.732 43.732 0 003.43 15.592 36.684 36.684 0 007.71 11.266l1.49 1.438c.126.117.208.16.335.292.3.308 2.782 2.418 3.2 2.757a51.437 51.437 0 005.5 4.007z" fill="#095cbe" fill-rule="evenodd"/><path data-name="Path 5818" d="M34.418 70.011l-.123.024-.507-1.335c-.177-.431-.737-1.371-.906-1.779a6.62 6.62 0 01-.24-.631 13.95 13.95 0 01-.5-3.107c-.317-1.456-.874-1.252-.88-4.486a10.717 10.717 0 01.3-2.448c.015-.29.01-.575.01-.866a7.293 7.293 0 011.715-5.461l.042-.055.043-.055 1.17-1.289a1.717 1.717 0 01.544-.3l.118-1.565a5.76 5.76 0 00.236-.68c.407-1.526.1-.54.831-1.817.119-.21.182-.392.285-.58.05-.092.1-.16.158-.268.044-.083.041-.086.085-.157.507-.818.346-.477.9-1.081.389-.425.941-.392 1.312-.887l.486-.62a1.583 1.583 0 011.272-.682v.146a2.8 2.8 0 012.2 1.763 7.445 7.445 0 01.509 3.451c-.008.3-.019.626-.05.917-.05.439-.17.453.041.849a7.332 7.332 0 01.6 1.376 6.183 6.183 0 01.062 3.5 2.756 2.756 0 011.175 1.889c.325 1.238.35 1.086 1.232 1.884.3-.161.247-.652.3-1.032.146-1.016.481-2.036.65-3.374.48-3.793-1.793-6.827-1.132-9.446a2.44 2.44 0 011.053-1.656 2.559 2.559 0 01.76-.247c.127-.055-.1-.068.23-.068.981 0 1.808 1.083 2.182 1.889.648 1.4.657 2.978 1.036 4.339a16.682 16.682 0 01.564 2.188 38.968 38.968 0 01.4 5 9.855 9.855 0 00.537 3.419c.12.481.109.714.589.818l-.009-.132 1.492.05c.274.027 1.126.151 1.287.023l1.425-1.212c.168-.115.036.006.185-.153l.631-.524c.081-.078.048-.083.161-.168a6.91 6.91 0 001.145-1.11c.1-.132.2-.27.3-.421l.467-.638c.179-.247.087-.1.376-.352l.249-.184a4.577 4.577 0 001.1-1.057l1.066-1.146a1.91 1.91 0 01.225-.164 2.125 2.125 0 01.285-.241 8.117 8.117 0 012.781-1.507 7.216 7.216 0 01.954-.182c.232 0 .291-.063.238.133 2.808.216 4 2.775 2.275 3.964-1.372.945-1.681.435-2.488 1.451-.539.676-.976 1.666-1.491 2.447-.212.325-.413.462-.812 1.11-.263.425-.493.8-.746 1.223-.585.986-.987 1.25-1.586 2.353a9.608 9.608 0 01-1.5 2.441l-.926 1.044c-.366.387-1.084.986-1.514 1.418a8.076 8.076 0 00-1.966 2.933 1.058 1.058 0 00.691 1.255c.294.165.359.235.711.1.24-.092.487-.2.72-.292a22.241 22.241 0 004.931-2.942c.227-.164 1.639-1.31 1.871-1.542.46-.455.777-.694 1.273-1.224.693-.739 1.2-1.194 1.881-2.059s1.05-1.316 1.688-2.25a28.361 28.361 0 003.068-25.146 30.554 30.554 0 00-2.435-5.4 35.1 35.1 0 00-2.366-3.543c-.285-.383-.6-.725-.882-1.089l-.449-.511c-.19-.184-.293-.366-.475-.535l-3.06-2.841a30.658 30.658 0 00-4.726-3.154 30.319 30.319 0 00-30.788 1.259 33.812 33.812 0 00-3.393 2.517l-2.741 2.638a30.3 30.3 0 00-4.939 7.408 29.414 29.414 0 00-2.934 12.794 27.471 27.471 0 004.473 15.151 23.24 23.24 0 001.65 2.289l1.363 1.569a32.339 32.339 0 002.507 2.44c.153.14.362.3.521.439.472.409 1.166.943 1.675 1.3a38.417 38.417 0 002.367 1.573 24.122 24.122 0 003.967 1.945c.367.039.9-.494.941-1.03z" fill="#40bbf0" fill-rule="evenodd"/><path data-name="Path 5819" d="M18.34 87.947h54.823c-.142-.236-.913-1-1.238-1.358-.149-.165-.271-.268-.43-.436L70.252 84.8c-.146-.16-.285-.263-.432-.43-.273-.314-.558-.578-.837-.893-.78-.88-1.732-1.8-2.534-2.7l-1.676-1.784c-.688-.648-1.936-2.127-2.528-2.657-.2-.186-.971-1.036-1.248-1.346-.145-.161-.284-.273-.432-.435l-2.533-2.7c-.272-.308-.565-.585-.835-.892-.594-.668-1.509-1.547-2.107-2.217-.5-.564-3.555-3.81-3.8-4.034-.626-.574-.17-.571-1.153-.569h-8.839c-.287 0-.638.483-.788.646l-2.142 2.229c-1.074 1.16-2.152 2.255-3.226 3.355l-1.083 1.128c-.432.426-.561.662-1.053 1.107l-2.514 2.627c-.7.766-1.436 1.474-2.145 2.228l-8.589 8.984c-.1.087-1.369 1.389-1.418 1.5z" fill="#095cbe" fill-rule="evenodd"/><path data-name="Path 5820" d="M45.192 21.397s.185.5.327 1.016a31.5 31.5 0 01.537 4.569s-.278 1.153-1.217.1a16.157 16.157 0 00.327-3.514 13.486 13.486 0 01.026-2.171z" fill="#0171f6" fill-rule="evenodd"/><path data-name="Path 5821" d="M22.602 86.423c3.219-.067 7.14.264 10.165-.367 3.2-.667 3.288-1.937 4.406-3.527.622-.884 4.88-13.322 5.639-15.5a3.22 3.22 0 00.264-1.031l-.622-.744c-2.1 0-1.18-.125-2.52 1.25-.581.594-1.716 2.032-2.306 2.643-.212.221-.389.453-.581.67l-7.515 8.624c-.2.225-.392.409-.568.634-.513.65-1.434 1.616-2.008 2.315l-3.209 3.666a17.687 17.687 0 00-1.149 1.367z" fill="#fff" fill-rule="evenodd"/><path data-name="Path 5822" d="M52.256 86.432l3.361-.013-.821-2.707c.179.1 1.853 2.217 2.042 2.444l.242-2.756c.2.1 1.495 2.327 1.781 2.7l.31.362h3.667c-.064-.2-1.5-2.314-1.731-2.657-.6-.877-1.16-1.739-1.739-2.632s-1.157-1.753-1.738-2.634l-8.5-12.879-.362-.247 2.024 6.426-3.606-6.2-.355-.3c.038.35 1.2 4.766 1.332 5.285.878 3.557 1.8 7.014 2.692 10.567l1.005 3.939c.069.271.207 1.17.4 1.3z" fill="#fff" fill-rule="evenodd"/><path data-name="Path 5823" d="M38.207 86.415h3.731l.747-3.524 3.617.01.328 3.476h3.4l-3.751-21.084h-.849l.778 14.733h-3.136l1.753-14.738h-.98l-5.638 21.127z" fill="#fff" fill-rule="evenodd"/><path data-name="Path 5824" d="M53.707 57.496a11.928 11.928 0 001.478.079c1.778.1.864.384 3.2-1.544a20.883 20.883 0 003.2-3.254 9.167 9.167 0 00-1.126 1.29c-.482.867-.7.834-1.16 1.289-.38.38-1.179 1.056-1.589 1.439-.12.114-.181.207-.3.317-1.184 1.025-.675.926-1.478.752a5.79 5.79 0 00-4.834.91 4 4 0 00-1.35 1.051c.144.03 1.231-.28 1.536-.326l1.775-.116c-.189.147-.495.32-.681.448a4.029 4.029 0 00-1.621 1.936 1.164 1.164 0 00.7 1.579 6.215 6.215 0 002.144.146 5.534 5.534 0 003.269-1.428 4.35 4.35 0 001-1.348l.339-2.069a6.286 6.286 0 002.273-.038 3.047 3.047 0 002.042-1.745c.156-.247.328-.509.477-.767.313-.533.6-1.108.9-1.647.7-1.249 2.187-3.481 3.376-4.222l1.638-.892c-.05-.7-2.183-.462-3.043-.071l-.908.432a1.712 1.712 0 01.662-.452 6.032 6.032 0 012.44-.73c.053-.2-.006-.137-.238-.133a7.217 7.217 0 00-.954.182 8.117 8.117 0 00-2.781 1.507 2.124 2.124 0 00-.285.241 1.91 1.91 0 00-.225.164l-1.066 1.146a4.577 4.577 0 01-1.1 1.057l-.249.184c-.289.253-.2.1-.376.352l-.467.638c-.1.152-.2.289-.3.421a6.91 6.91 0 01-1.145 1.11c-.113.085-.081.09-.161.168l-.631.524c-.149.16-.017.038-.185.153l-1.425 1.212c-.161.128-1.013 0-1.287-.023l-1.492-.05.009.132z" fill="#095cbe" fill-rule="evenodd"/><path data-name="Path 5825" d="M44.116 27.429c.181.129-.067.744-.18 1.181-.2.794-.568 2.207-.726 2.979-.06.3-.02.486-.194.54l-4.116.146c-2.42.055-7.415-.319-10.183-.444-.453-.02-1.814-.179-1.971.06a13.665 13.665 0 001.68.387 2.742 2.742 0 01-.572.585c-.106.124-.1.175-.029.213l.828.127c.216.163.3.441.495.6l.546-.6c-.05-.331-.449-.424-.329-.75l3.121.269c.517.068 1.037.114 1.549.182a4.511 4.511 0 011.489.24l-.581.826c.711-.026.737-.154 1.116.424.427.657.858-.214.855-.248l-.392-.893 3.393.241c.554.051 1.183.117 1.721.143 1.39.071.972-.336 1.452-.352l.609 1.407c.414.261.114.191.312.584.1.2.077.114.188.243.24.28.076.191.274.239-.142-.3-.4-.338-.346-.756.365-.013.739.217 1.166.239.442.022.834-.336 1.139-.181l.4-.118.088.325h.144c-.179-.7-.132-.5.09-1.075a4.907 4.907 0 01.417-.873 4.539 4.539 0 00.6.332c.733.247 5.353-.423 5.95-.225l-.4.863c.412.5.515.776.858.265.454-.672.634-.488 1.118-.381l-.531-.9c.926-.1 5.866-.664 6.143-.543l-.346.8c-.019.313.31.518.538.589l.494-.609c.273-.257.814-.049.843-.121.006-.012.022-.007.032-.012l-.3-.367c-.2-.121-.329-.147-.34-.416l.9-.163c.507-.082.713-.013.8-.2a16.66 16.66 0 00-2.735-.06c-2.635.075-5.764.26-8.264.263-.914 0-1.852-.058-2.768-.091-.432-.015-2.435 0-2.584-.24-.027-.044-.446-2.063-.51-2.33l-.482-2.028c-.029-.157-.022-.2.055-.282l5.632-.086-.022-.13c-.872-.067-5.042.044-5.045.043l-1.207-.382a4.533 4.533 0 01-.477.606c-.434-.167.165-.05-.621-.426-.034-.456.064-.284.195-.573a2.741 2.741 0 00.079-.725 12.067 12.067 0 00.029-1.538 18.946 18.946 0 00.074-2.354c-.03-.566.039-.476-.13-.744-.085.834-.081 4.829-.206 5.217l-.165.64a3.862 3.862 0 00-.665.417z" fill="#095cbe" fill-rule="evenodd"/><path data-name="Path 5826" d="M34.418 70.012c.172-.3-1.042-2.412-1.224-2.779a7.573 7.573 0 01-.815-3.329c-.1-1.379-.66-1.963-.853-3.273a13.412 13.412 0 01-.1-1.981c0-.347-.006-.706.024-1.053a1.459 1.459 0 01.243-.841c-.048 2.006-.153 2.487 1.018 3.995a6.969 6.969 0 00.519.537c.458.486.725.5.9 1.16.383 1.426 3.622 2.845 4.81 3.463l.671-.825c-.673-.97-1.124-2.188-1.842-3.158a4.648 4.648 0 00-1.256-1.23l-2.093-.27c.053-.192 1.227-2.025 1.43-2.357-.481-.512-1.242-.251-1.866-.141.165-.439 1.041-.541.9-1.824a1.754 1.754 0 00-.771-1.27 1.355 1.355 0 00-.221-.116l-.247-.155.948-.528-.292-2.383.921.245.084-.818c1.074.242 3.106-.86 2.52-1.888-.457-.8-2.433-.578-3.517.211a6.47 6.47 0 00-1.988 2.723l-.534 4.245a11.785 11.785 0 01.029-2.769 8.1 8.1 0 012.528-4.694 2.364 2.364 0 01.9-.587c-.074-.667-.206-.844.051-1.476a8.712 8.712 0 00.411-1.367 4.03 4.03 0 01.616-1.119c.222-.336.4-.786.62-1.154a3.952 3.952 0 011.278-1.325c.222-.132.42-.17.629-.284a9.964 9.964 0 00.767-.954 1.555 1.555 0 011.15-.608v-.146a1.583 1.583 0 00-1.272.682l-.486.62c-.371.5-.923.463-1.312.887-.556.6-.4.263-.9 1.081-.044.071-.041.074-.085.157-.06.109-.108.177-.158.268-.1.189-.166.37-.285.58-.73 1.277-.424.291-.831 1.817a5.762 5.762 0 01-.236.68l-.116 1.564a1.717 1.717 0 00-.544.3l-1.17 1.289a.688.688 0 00-.043.055l-.042.055a7.293 7.293 0 00-1.715 5.461c0 .292.005.577-.01.866a10.718 10.718 0 00-.3 2.448c.006 3.234.563 3.03.88 4.486a13.95 13.95 0 00.5 3.107 6.62 6.62 0 00.24.631c.168.409.729 1.348.906 1.779l.507 1.335.123-.024z" fill="#095cbe" fill-rule="evenodd"/><path data-name="Path 5827" d="M28.766 83.486c1.251.079 3.992.2 5.046-.474a1.994 1.994 0 00.852-1.022c.789-1.657 1.636-3.3 2.412-4.984 1.137-2.461 2.425-5.035 3.562-7.537l.868-1.871c.077-.168.32-.533.178-.681-.278-.292-.627.327-.95.774-.7.97-1.67 2.219-2.4 3.172-2.139 2.774-4.248 5.62-6.39 8.408-.159.21-3.127 4.087-3.177 4.217z" fill="#00458d" fill-rule="evenodd"/><path data-name="Path 5828" d="M69.249 86.495l-6.494-7.406a31.543 31.543 0 00-.466-.544c-.093-.109-.145-.135-.235-.245-.539-.673-1.3-1.454-1.858-2.13-.092-.113-.165-.161-.257-.271l-1.6-1.854c-.817-.889-2.432-2.825-3.066-3.468a6.592 6.592 0 00-1.918-.1c.058.193 1.459 1.948 1.7 2.286l9.472 12.431c1.228 1.6.547 1.3 2.714 1.3.667 0 1.337.01 2 0z" fill="#fff" fill-rule="evenodd"/><path data-name="Path 5829" d="M40.968 59.477a8.223 8.223 0 002.707-.713l2.53-.894a8.243 8.243 0 01-2.653 1.536l-3.593.573c.018.409.334.422.765.465a13.044 13.044 0 005.279-.658l1.85-.632c-.121 1.17 1.042.137 1.6-.142a16.6 16.6 0 012.069-.748c-.029-.225-.183-.2-.524-.431a2.66 2.66 0 00.365-1.109c.134-2.277-3.224-1.241-3.9-.7-.11.088-.292.256-.214.476.153.432 1.66.037 1.9-.048a1.592 1.592 0 01.656-.128c.286.017.423.19.193.4a11.282 11.282 0 01-2.884.044c-1.038-.135-1.708-.428-2.6.093a38.071 38.071 0 00-3.106 2.275 1.788 1.788 0 00-.44.338z" fill="#095cbe" fill-rule="evenodd"/><path data-name="Path 5830" d="M21.846 76.28c.5-.535 3.33-4.032 3.857-4.708l-1.894-1.578a2.438 2.438 0 00-.737-.46c-1.454-.522-2.688.591-3.25 1.218a3.2 3.2 0 00-.828 1.477 2.142 2.142 0 00.876 2.475 24.645 24.645 0 001.976 1.579z" fill="#fff" fill-rule="evenodd"/><path data-name="Path 5831" d="M42.45 4.221l.148 6.1c.623.02 1.339-.024 1.971-.042a3.1 3.1 0 001.736-.335c1.729-1.109 1.749-4.67-.048-5.587a3.28 3.28 0 00-1.832-.21 18.775 18.775 0 00-1.974.072z" fill="#fff" fill-rule="evenodd"/><path data-name="Path 5832" d="M25.024 9.686l1.521 4.515a6.84 6.84 0 01-.86-.8l-2.586-2.465c-.282.124-1.214.756-1.536.968.051.2 1.385 2.21 1.624 2.6l1.643 2.57 1.067-.642c-.072-.195-2.2-3.508-2.51-4.018.392.29 3.043 2.977 3.46 3.39.181-.11.315-.2.505-.319a3.927 3.927 0 00.53-.366l-1.652-4.563c.146.153 1.081 1.66 1.285 1.976l1.3 2.016 1.034-.674c-.058-.175-1.385-2.194-1.625-2.582-.28-.453-.544-.849-.821-1.294a14.254 14.254 0 00-.849-1.277 8.272 8.272 0 00-.774.486c-.249.161-.524.338-.757.477z" fill="#fff" fill-rule="evenodd"/><path data-name="Path 5833" d="M76.857 56.44l4.307 2.024-4.789-1.011-.512 1.133c.613.547 3.5 2.553 3.8 2.913-.2-.052-3.957-1.755-4.271-1.894l-.5 1.112 5.572 2.555.753-1.7c-.259-.14-2.337-1.824-2.779-2.163l-.7-.547a1.059 1.059 0 01-.106-.084l-.125-.14 4.676.88.745-1.673-5.554-2.519a7.093 7.093 0 00-.524 1.116z" fill="#fff" fill-rule="evenodd"/><path data-name="Path 5834" d="M47.066 35.271l.145.069c.29-.263.369-.687.77-1a3.317 3.317 0 011.5-.269c.462-.036 3.1-.277 3.339-.2.274.085.6.7.851.93a2.275 2.275 0 001.058.72c1.006.246.994-.362 1.071-.656.055-.2.393-.537.253-1.044-.05-.187-.107-.118-.051-.358.266-.068.954-.093 1.3-.133.441-.051.915-.1 1.35-.147 1.451-.15 1.388-.024 2.053.785a3.271 3.271 0 00.732.711 1.332 1.332 0 001.2.1c.348-.2.308-.577.487-.957v-1.11a14.3 14.3 0 011.947-.273c.446-.053 5.578-.631 5.8-.771l.093-.066c-.2-.144-.346-.113-.644-.106-1.486.041-3.683.133-5.094.229-1.934.132-3.845.176-5.812.255-1.938.079-3.825.22-5.813.244-.5.006-.886.041-1.4.005-.694-.048-4.124-.181-4.3-.253a24.261 24.261 0 01-.814-3.58c.274-.127 2.221-.338 2.715-.414l2.591-.524-.111-.085-5.639.084c-.077.086-.084.125-.055.282l.482 2.028c.064.266.483 2.286.51 2.33.149.241 2.152.224 2.584.24.917.032 1.855.091 2.768.091 2.5 0 5.629-.188 8.264-.263a16.66 16.66 0 012.735.06c-.083.191-.288.122-.8.2l-.9.163c.011.269.135.3.34.416l.3.367c-.01.005-.026 0-.032.012-.029.072-.57-.136-.843.121l-.494.609c-.228-.071-.557-.275-.538-.589l.346-.8c-.277-.121-5.218.446-6.143.543l.531.9c-.483-.106-.664-.291-1.118.381-.343.51-.446.233-.858-.265l.4-.863c-.6-.2-5.217.472-5.95.225a4.539 4.539 0 01-.6-.332 4.907 4.907 0 00-.417.873c-.222.573-.269.377-.09 1.075z" fill="#0171f6" fill-rule="evenodd"/><path data-name="Path 5835" d="M43.696 33.511l-.609-1.407c-.48.015-.062.423-1.452.352-.538-.026-1.168-.092-1.721-.143l-3.393-.241.392.893c0 .034-.428.906-.855.248-.378-.578-.4-.45-1.116-.424l.581-.825a4.5 4.5 0 00-1.489-.241c-.512-.067-1.032-.114-1.549-.181l-3.121-.27c-.121.326.278.419.329.75l-.546.6c-.2-.162-.278-.44-.495-.6l-.828-.127c-.071-.038-.077-.089.029-.213a2.742 2.742 0 00.572-.585 13.665 13.665 0 01-1.68-.387c.158-.238 1.519-.079 1.971-.06 2.768.125 7.763.5 10.183.444l4.116-.147c.174-.053.134-.242.194-.54.158-.772.521-2.185.726-2.979.113-.437.361-1.052.18-1.181l-5.74-.151c.124.315 2.156.553 2.551.613a18.62 18.62 0 012.723.507 18.484 18.484 0 01-.588 2.672 3.582 3.582 0 01-.283.862 44.161 44.161 0 01-5.8.141c-1.912-.064-3.863-.247-5.764-.348-1.882-.1-3.858-.216-5.721-.369l-5.768-.258c.036.052-.045.1.375.181 1.713.315 3.8.519 5.538.8l1.942.36c-.05.442-.435.279-.067 1.031.209.432.079.749.509.983a1.342 1.342 0 001.591-.416l.7-.789c.419-.519.973-.408 1.72-.316l2.663.333c.018.25-.151.256-.127.69s.165.38.252.66c.083.263.013.484.27.653a1.155 1.155 0 00.828.069c1.053-.25 1.459-1.533 1.98-1.621a33.325 33.325 0 013.338.277c1.661.164 1.189.058 2.3 1.315l.159-.615z" fill="#0171f6" fill-rule="evenodd"/><path data-name="Path 5836" d="M55.237 11.609l1.2.453a19.121 19.121 0 01.753-1.943c.134-.331.247-.65.377-.964a6.084 6.084 0 01.418-.956l.758 4.758a6.2 6.2 0 001.139.475c.663-1.489 1.606-4.09 2.217-5.705l-1.167-.442c-.177.605-.5 1.28-.741 1.9-.127.329-.249.631-.378.966-.058.149-.286.771-.366.892l-.049.063c-.086-.517-.666-4.4-.725-4.613-.07-.239-.821-.436-1.2-.572l-2.236 5.688z" fill="#fff" fill-rule="evenodd"/><path data-name="Path 5837" d="M48.6 10.298l1.287.214.638-1.078a19.049 19.049 0 012.187.434l.24 1.246 1.243.224c-.125-1.418-.723-4.818-.979-6.418l-1.407-.243-3.209 5.621z" fill="#fff" fill-rule="evenodd"/><path data-name="Path 5838" d="M8.593 28.576a18.556 18.556 0 001.744 1.659c.216.182.381.371.6.554l2.423 2.219.5-1.165-.927-.913.892-2.046 1.3.09.494-1.175-6.461-.514-.564 1.292z" fill="#fff" fill-rule="evenodd"/><path data-name="Path 5839" d="M65.461 16.775c.249.179.65.568.906.8l1.165-.6c.208.121 1.393 1.208 1.688 1.466l-.458 1.27a10.781 10.781 0 01.931.771l2.506-5.993c-.259-.184-.818-.688-1.1-.924-1.2.708-2.952 1.671-4.24 2.376a9.3 9.3 0 00-1.4.834z" fill="#fff" fill-rule="evenodd"/><path data-name="Path 5840" d="M15.477 17.624l3.054 5.7.871-.873-.589-1.244c.085-.051.659-.669.748-.776l.742-.836 1.263.484c.1-.162.6-.693.8-.92l-5.954-2.6-.933 1.058z" fill="#fff" fill-rule="evenodd"/><path data-name="Path 5841" d="M6.795 33.84l2.232.552-.546 2.311-2.259-.491-.271 1.212 5.952 1.421.278-1.232-2.671-.682.549-2.278 2.71.587.282-1.21-5.962-1.418-.292 1.23z" fill="#fff" fill-rule="evenodd"/><path data-name="Path 5842" d="M71.133 72.016l-.821.807a1.644 1.644 0 001.8.544c.971-.276 2.386-1.6 2.129-2.884a1.865 1.865 0 00-1.19-1.357c-1.373-.4-2.594 1.59-3.565 1.314-.88-.249-.37-1.369-.069-1.544 0 0 1.011-.943 1.73-.338l.885-.876a2.09 2.09 0 00-1.906-.477c-1.046.306-2.376 1.692-2.265 2.833a2.091 2.091 0 001.015 1.537c1.673.889 3.605-2.391 4.248-.881.259.611-.491 1.308-.99 1.5a.961.961 0 01-1-.174z" fill="#fff" fill-rule="evenodd"/><path data-name="Path 5843" d="M71.425 65.712l.815.578a3.472 3.472 0 00.5-.652l1.2-1.68c.046-.067.062-.1.118-.172l.146-.152 1.243.873c-.062.14-1.533 2.213-1.665 2.405l.854.58c.259-.3 1.362-1.882 1.692-2.339l1.1.8c-.086.168-.728 1.034-.9 1.272l-.885 1.322.816.573c.231-.22 2.241-3.112 2.578-3.6a14.444 14.444 0 00-1.217-.879c-1.271-.87-2.467-1.786-3.763-2.657-.192.171-2.611 3.6-2.639 3.729z" fill="#fff" fill-rule="evenodd"/><path data-name="Path 5844" d="M10.718 48.201c-.019.165.536 2.866.612 3.262l-1.494.3-.613-2.852-1.037.2.575 2.883-1.352.248-.65-3.089-1.015.229.879 4.335 6.021-1.219-.935-4.497-.989.2z" fill="#fff" fill-rule="evenodd"/><path data-name="Path 5845" d="M28.987 7.58l2.227 5.733 4.277-1.688-.4-.98-3.069 1.2-.574-1.449 2.7-1.083-.395-.964-2.706 1.048-.488-1.278 2.949-1.142-.371-.983a18.77 18.77 0 00-2.061.778c-.379.154-1.807.741-2.088.809z" fill="#fff" fill-rule="evenodd"/><path data-name="Path 5846" d="M17.159 64.572l2.129 2.533-1.179.985c-.439-.442-1.41-1.65-1.866-2.2l-.825.683 1.859 2.209a11.436 11.436 0 01-1.011.894c-.235-.191-1.718-1.971-2.049-2.387a5.2 5.2 0 00-.813.676c.062.139 1.224 1.445 1.417 1.692.315.412 1.076 1.243 1.453 1.669l1.172-.989c.686-.641 2.156-1.78 2.91-2.472l.572-.533c-.493-.491-1.025-1.229-1.486-1.721l-1.486-1.714a6.6 6.6 0 00-.8.669z" fill="#fff" fill-rule="evenodd"/><path data-name="Path 5847" d="M78.892 48.844l1.056.062.272-3.285 1.552.118-.221 2.927 1.05.062.235-2.9 1.364.1-.2 3.173.973.067a4.543 4.543 0 00.135-1.1l.219-2.753c.006-.083.018-.184.021-.266a1.342 1.342 0 00.005-.142l-.043-.166-6.061-.476-.359 4.574z" fill="#fff" fill-rule="evenodd"/><path data-name="Path 5848" d="M36.751 47.381a4.62 4.62 0 002.812-2.566 3.016 3.016 0 00-.183-2.216.628.628 0 00-.86-.278 3.411 3.411 0 00-1.966 2.07 14.7 14.7 0 00-1.009 3.026c-.1.495-.122.759.393.833.91.13 1.694-.053 1-.651-.135-.118-.114-.069-.19-.217z" fill="#095cbe" fill-rule="evenodd"/><path data-name="Path 5849" d="M39.618 49.234v.193l.676 1.422c.092-.189.275-.736.47-1.137a8.912 8.912 0 01.934-1.52c.132-.17.292-.254.242-.513-.1-.5-.488-.577-.886-.749.034-.3.331-1.008.427-1.4.057-.289.243-1.463.243-1.725 0-1.137-.222-2.573-.946-3.076a.881.881 0 00-1.306.328c-.4.771.14.923.438 1.353 1.342 1.938-.288 4.1-.293 6.822z" fill="#095cbe" fill-rule="evenodd"/><path data-name="Path 5850" d="M47.933 42.074c.123.772-.186 1.795.175 2.706.114.289.293.436.118.711-.82 1.278-.631 1.072-.456 3.094.385.157.817-.427 1.15-.571l1.372-.406c-.726-1.9-.438-1.353-.615-3.262-.138-1.494-1.019-1.429-1.146-2.7-.051-.5-.106-1.209-.651-1.249a1.255 1.255 0 00-1.183.729c-.247.473-.362 1.152.048 1.461.577.433.757-.444 1.189-.517z" fill="#095cbe" fill-rule="evenodd"/><path data-name="Path 5851" d="M9.531 61.609l.6 1.116 4.631-1.077c-.85.891-2 2.125-2.873 2.952l-.444.442.642 1.107c.113-.078 2.028-2.227 2.171-2.4.505-.613 1.541-1.721 2.137-2.409l-.5-.941-6.364 1.21z" fill="#fff" fill-rule="evenodd"/><path data-name="Path 5852" d="M12.615 21.171c.148.179.237.264.393.439.071.081.1.136.172.214.08.093.133.129.208.222l2.333 2.714-4.542-1.305-.675 1.039 6.305 1.557.545-.9c-.383-.569-2.92-3.647-3.533-4.408a4.316 4.316 0 00-.54-.626l-.666 1.054z" fill="#fff" fill-rule="evenodd"/><path data-name="Path 5853" d="M38.902 4.644l-.64 2.779c-.159-.12-1.452-1.914-1.727-2.295l-1.369.294c.046.109 2.2 2.752 2.412 3a1.061 1.061 0 01.377.726l.372 1.868 1.217-.314a.32.32 0 000-.114c0-.026-.034-.17-.041-.2a7.443 7.443 0 01-.317-2.086l1.076-3.939-1.364.277z" fill="#fff" fill-rule="evenodd"/><path data-name="Path 5854" d="M5.534 47.353l1.066-.016-.03-1.844 5.053-.151-.032-1.249-5.079.126-.039-1.781-1.064.022.125 4.893z" fill="#fff" fill-rule="evenodd"/><path data-name="Path 5855" d="M83.284 52.547l-4.955-1.162-.248 1.238 4.9 1.16-.414 1.75 1.034.222L84.741 51l-1.037-.223-.424 1.77z" fill="#fff" fill-rule="evenodd"/><path data-name="Path 5856" d="M78.811 38.854l.4 4.184 1.052-.11-.276-2.911 5.046-.485-.117-1.263-6.1.585z" fill="#fff" fill-rule="evenodd"/><path data-name="Path 5857" d="M11.986 53.943l.948 2.8c-.362.074-4.307 1.519-4.768 1.684l.418 1.186 5.781-2.069-1.412-3.93-.968.334z" fill="#fff" fill-rule="evenodd"/><path data-name="Path 5858" d="M61.208 14.117l3.607 2.191.5-.9-2.463-1.528c.064-.175 2.295-3.8 2.612-4.334l-1.112-.633c-.125.378-2.975 4.791-3.141 5.207z" fill="#fff" fill-rule="evenodd"/><path data-name="Path 5859" d="M49.973 50.676c-.01.008-.026.008-.032.025l-.472.311a4.74 4.74 0 00-.488.378 4.675 4.675 0 00-.781.948l-.22 2.756a5.97 5.97 0 013 .222c.05-.371-.533-.265-.6-1.325a15.679 15.679 0 01.124-1.875l-.028-3.647c-.439 0-.521.323-.56.823a8.992 8.992 0 00.055 1.384z" fill="#095cbe" fill-rule="evenodd"/><path data-name="Path 5860" d="M36.452 52.169c.062.187.106.125.1.431-.006.733-.345.9-.238 1.284a7.251 7.251 0 01.321 1.887 2.46 2.46 0 00.146.962c.171.33.438.149.746.021.579-.24.907-.421 1.5-.615.042-.311-.271-.2-.378-.753s.151-1.556-.161-2.133l-.472-.748a5.8 5.8 0 01.582-.547l.524-.6c-.251.034-2.395.7-2.668.807z" fill="#00458d" fill-rule="evenodd"/><path data-name="Path 5861" d="M21.51 74.66c.24-.185 2.214-2.677 2.542-3.1-.509-.388-.995-.94-1.58-.974a2.211 2.211 0 00-1.636.937 2.1 2.1 0 00-.644 1.842c.117.4 1.071 1.151 1.317 1.292z" fill="#00458d" fill-rule="evenodd"/><path data-name="Path 5862" d="M43.757 5.243c-.061.3.06 3.473.085 4.006.639-.036 1.367.067 1.833-.288a2.211 2.211 0 00.633-1.776 2.1 2.1 0 00-.709-1.819 4.12 4.12 0 00-1.841-.124z" fill="#00458d" fill-rule="evenodd"/><path data-name="Path 5863" d="M76.41 30.631a5.575 5.575 0 00.492 1.172l5.622-2.314a5.2 5.2 0 00-.491-1.188l-5.623 2.33z" fill="#fff" fill-rule="evenodd"/><path data-name="Path 5864" d="M65.302 71.284c.125.264 3.46 4.685 3.623 4.9l1.005-.722a1.075 1.075 0 00-.208-.317l-1.575-2.125a86.107 86.107 0 01-1.8-2.478 4.5 4.5 0 00-1.048.74z" fill="#fff" fill-rule="evenodd"/><path data-name="Path 5865" d="M74.13 26.269l.654 1.058 5.213-3.149-.648-1.093c-.06.013-5.01 2.995-5.219 3.184z" fill="#fff" fill-rule="evenodd"/><path data-name="Path 5866" d="M43.069 55.72l-.382-.276a14.048 14.048 0 00-.018-1.531 2.832 2.832 0 00-.494-1.135c-.6-.807-1.093-.527-1.584-.859-.266-.182-.146-.223-.394-.446-.489.987.75 1.936.659 2.988-.078.924-.58 1.261.3 1.289a8.867 8.867 0 001.912-.029z" fill="#00458d" fill-rule="evenodd"/><path data-name="Path 5867" d="M52.351 69.097l1.673-.013c-.093-.177-1.345-1.679-1.48-1.836a33.44 33.44 0 01-1.475-1.844h-1.531c.163.277 2.6 3.583 2.812 3.7z" fill="#fff" fill-rule="evenodd"/><path data-name="Path 5868" d="M56.122 59.588l1.053-.469c.448.82-.242 1.643-.621 2.053a5.941 5.941 0 01-4.252 1.636l-.494-1.712a1.666 1.666 0 00-.779 1.3c0 .708.742.721 1.371.737 2.055.057 4.64-1.429 5.228-3.1a1.1 1.1 0 00-.547-1.407c-.556-.231-1.1.418-.958.959z" fill="#fff" fill-rule="evenodd"/><path data-name="Path 5869" d="M44.472 35.763a.852.852 0 01.327.59l-.68-.061c.039.3.2.4.424.571a1.042 1.042 0 001.638-.233l.227-.35-.478-.031c-.154-.525.578-.74.5-1.185-.3-.155-.7.2-1.139.181-.427-.022-.8-.252-1.166-.239-.051.419.2.46.346.756z" fill="#0171f6" fill-rule="evenodd"/><path data-name="Path 5870" d="M69.728 50.212c-.357.024-1.153.689-1.019 1.109a6.194 6.194 0 001.182.892l.029.017.06.033c.2.072.537-.176.664-.3.767-.758-.072-1.806-.915-1.748z" fill="#00458d" fill-rule="evenodd"/><path data-name="Path 5871" d="M68.586 16.423a11.784 11.784 0 001.106 1 17.134 17.134 0 00.95-2.234c-.147.053-1.9 1.1-2.056 1.232z" fill="#00458d" fill-rule="evenodd"/><path data-name="Path 5872" d="M18.291 20.208c.318-.3.7-.751 1.013-1.095-.13-.133-2.049-.922-2.2-.988a20.913 20.913 0 001.192 2.083z" fill="#00458d" fill-rule="evenodd"/><path data-name="Path 5873" d="M12.093 30.131l.59-1.4-2.374-.181.1.121a38.246 38.246 0 001.682 1.456z" fill="#00458d" fill-rule="evenodd"/><path data-name="Path 5874" d="M51.111 8.433l1.523.285-.394-2.393-1.129 2.108z" fill="#00458d" fill-rule="evenodd"/><path data-name="Path 5875" d="M69.562 76.755l.614.819.722-.5-.562-.85a4.165 4.165 0 00-.774.536z" fill="#fff" fill-rule="evenodd"/><path data-name="Path 5876" d="M82.892 28.131l.351.862.947-.37-.377-.871-.921.379z" fill="#fff" fill-rule="evenodd"/><path data-name="Path 5877" d="M76.455 34.962a1.6 1.6 0 00.058.4.416.416 0 00.13.224.258.258 0 00.242.035.232.232 0 00.188-.153.5.5 0 00-.009-.253.917.917 0 00-.146-.318l.153-.229.833.308.109.409-.539-.207.006.017a.806.806 0 01.116.274 1.253 1.253 0 01.04.288.8.8 0 01-.039.275.586.586 0 01-.137.224.528.528 0 01-.246.135.9.9 0 01-.428.024.729.729 0 01-.317-.153.883.883 0 01-.217-.278 1.7 1.7 0 01-.132-.35 3.632 3.632 0 01-.079-.346 2.215 2.215 0 01-.029-.265 2.185 2.185 0 010-.233c0-.074.009-.156.015-.241l.449.069a2.171 2.171 0 00-.024.338m2.645-1.351a.979.979 0 00-.263.378 1.309 1.309 0 00-.081.472 2.08 2.08 0 00.071.519 2.528 2.528 0 00.128.368 1.327 1.327 0 00.212.346.842.842 0 00.306.233.6.6 0 00.4.018.551.551 0 00.353-.259 1.333 1.333 0 00.144-.472 4.259 4.259 0 00.025-.615 13.112 13.112 0 010-.687 6.066 6.066 0 01.032-.707 2.367 2.367 0 01.163-.652 1.529 1.529 0 01.375-.532 1.486 1.486 0 01.657-.338 1.6 1.6 0 01.849-.015 1.846 1.846 0 01.7.365 2.314 2.314 0 01.523.63 3.163 3.163 0 01.321.774 3.878 3.878 0 01.132.927 2.338 2.338 0 01-.136.854 1.761 1.761 0 01-.458.688 1.9 1.9 0 01-.831.428l-.336-1.27a1.1 1.1 0 00.413-.23.758.758 0 00.209-.327 1.107 1.107 0 00.047-.4 2.41 2.41 0 00-.076-.458 1.545 1.545 0 00-.118-.309.854.854 0 00-.193-.257.734.734 0 00-.264-.158.591.591 0 00-.341 0 .541.541 0 00-.265.142.61.61 0 00-.132.316 3.664 3.664 0 00-.041.593c0 .248 0 .57.006.969.007.117.008.282 0 .5a2.3 2.3 0 01-.122.664 1.871 1.871 0 01-.382.641 1.518 1.518 0 01-.768.43 1.872 1.872 0 01-.8.042 1.731 1.731 0 01-.731-.312 2.348 2.348 0 01-.6-.673 3.788 3.788 0 01-.426-1.037 3.881 3.881 0 01-.13-.99 2.513 2.513 0 01.163-.92 1.945 1.945 0 01.512-.738 2.032 2.032 0 01.9-.453l.336 1.271a1.138 1.138 0 00-.481.243" fill="#fff"/><path data-name="Path 5878" d="M77.343 20.236a1.976 1.976 0 01.345.667 1.677 1.677 0 01.055.667 1.574 1.574 0 01-.2.61 1.735 1.735 0 01-.442.5 1.824 1.824 0 01-.877.387 1.414 1.414 0 01-.924-.221l-.013.01a1.054 1.054 0 01.085.453 1.158 1.158 0 01-.1.413 1.56 1.56 0 01-.244.376 3.642 3.642 0 01-.325.331l-.261.221c-.1.083-.2.174-.3.268a2.612 2.612 0 00-.266.291.887.887 0 00-.162.3l-.816-1.063a2.347 2.347 0 01.465-.529c.2-.177.39-.353.562-.53a1.2 1.2 0 00.379-.657 1 1 0 00-.266-.71l-.816-1.064-1.89 1.451-.815-1.062 4.835-3.712zm-2.479 1.3a1.015 1.015 0 00.584.424.854.854 0 00.669-.222.811.811 0 00.371-.575 1.034 1.034 0 00-.262-.671l-.894-1.165-1.361 1.044z" fill="#fff"/></svg>